<svg width="32" height="32" viewBox="0 0 32 32" fill="none" xmlns="http://www.w3.org/2000/svg">
  <rect width="32" height="32" rx="8" fill="#2563EB"/>
  <path d="M8 12C8 9.79086 9.79086 8 12 8H20C22.2091 8 24 9.79086 24 12V20C24 22.2091 22.2091 24 20 24H12C9.79086 24 8 22.2091 8 20V12Z" fill="white"/>
  <path d="M16 10C13.2386 10 11 12.2386 11 15C11 17.7614 13.2386 20 16 20C18.7614 20 21 17.7614 21 15C21 12.2386 18.7614 10 16 10ZM16 18C14.3431 18 13 16.6569 13 15C13 13.3431 14.3431 12 16 12C17.6569 12 19 13.3431 19 15C19 16.6569 17.6569 18 16 18Z" fill="#2563EB"/>
</svg>